Coordinates
version=1
nRows=16
nColumns=36
inDegrees=yes

Units are S.I. units (second, meters, Newtons, ...)
If the header above contains a line with 'inDegrees', this indicates whether rotational values are in degrees (yes) or radians (no).

endheader
time	pelvis_tilt	pelvis_list	pelvis_rotation	pelvis_tx	pelvis_ty	pelvis_tz	hip_flexion_r	hip_adduction_r	hip_rotation_r	knee_angle_r	knee_angle_r_beta	ankle_angle_r	subtalar_angle_r	mtp_angle_r	hip_flexion_l	hip_adduction_l	hip_rotation_l	knee_angle_l	knee_angle_l_beta	ankle_angle_l	subtalar_angle_l	mtp_angle_l	lumbar_extension	lumbar_bending	lumbar_rotation	arm_flex_r	arm_add_r	arm_rot_r	elbow_flex_r	pro_sup_r	arm_flex_l	arm_add_l	arm_rot_l	elbow_flex_l	pro_sup_l
      5.88333330	     -4.80850508	      0.26584665	     -0.25766778	      0.33702960	      0.95208076	     -0.03650072	      0.87426862	     -6.58352705	     -4.29586646	      1.00985584	      0.01762531	      0.30246319	    -14.27342813	     -7.49999987	      4.05708599	     -5.05020649	      0.13309406	      2.31032071	      0.04032270	      0.00168326	     -9.04548606	     -7.49999987	      3.70397852	     -7.54765514	      4.45047640	   -187.85219169	   -120.57792670	   -256.84653404	     62.93189372	     65.04157842	     10.67607547	    -10.68650102	    -48.66118597	     36.78144213	     94.94091032
      5.90000000	     -4.86335716	      0.25059753	     -0.26906194	      0.33749736	      0.95493602	     -0.03650039	      0.97936612	     -6.48246262	     -4.29284285	      0.98835027	      0.01724997	      0.23304875	    -14.18808973	     -7.49999987	      4.20655962	     -5.15086877	      0.01134774	      2.37861447	      0.04151465	     -0.10032973	     -8.92363166	     -7.49999987	      3.61694008	     -7.43900137	      3.03193276	   -182.73876633	   -123.35062852	   -252.72585573	     62.54265224	     65.68302993	      9.60533332	    -10.27766225	    -50.75572144	     36.21818830	     95.41840314
      5.91666670	     -4.63812433	      0.22134893	     -0.34345150	      0.33714337	      0.95562194	     -0.03681071	      0.78177486	     -6.41158335	     -4.55111436	      0.97596103	      0.01703373	      0.46278353	    -13.56107970	     -7.49999987	      3.97529836	     -5.23571622	     -0.29192806	      2.38318416	      0.04159441	     -0.12759496	     -8.68966315	     -7.49999987	      3.18126992	     -7.29373712	      0.85321450	   -176.37816108	   -126.04645965	   -246.81479295	     61.83330591	     63.13689266	      7.44113714	     -9.89213708	    -51.77316588	     37.32051532	     85.41568177
      5.93333330	     -4.82648321	      0.20923326	     -0.43624494	      0.33767611	      0.95508510	     -0.03657255	      1.07278585	     -6.34268975	     -4.20062339	      1.00842469	      0.01760033	     -0.00549341	    -14.28135152	     -7.49999987	      4.22252945	     -5.28142966	     -0.43947741	      2.48020540	      0.04328775	     -0.35142456	     -8.87341102	     -7.49999987	      3.34342608	     -7.19798705	      2.21378710	   -180.26441677	   -128.49308072	   -249.71195944	     62.62338633	     65.49406758	      8.68991464	     -9.57268842	    -51.56959848	     34.44008860	     94.66931385
      5.95000000	     -4.72877382	      0.22817526	     -0.56112336	      0.33728824	      0.95558056	     -0.03685785	      1.01557725	     -6.36756794	     -4.23726401	      1.02687964	      0.01792243	      0.00206653	    -14.08719663	     -7.49999987	      4.10231661	     -5.29191304	     -0.64025109	      2.49647355	      0.04357168	     -0.55739868	     -8.79835532	     -7.49999987	      3.21803035	     -7.08236999	      1.59584774	   -179.21840022	   -130.70921619	   -247.51453284	     61.91488427	     65.07719125	      8.17381872	     -9.47692030	    -51.93963940	     33.73239972	     95.14119226
      5.96666670	     -4.61203032	      0.19000130	     -0.63772915	      0.34166159	      0.95516190	     -0.04148855	      0.87336298	     -6.41554982	     -4.18916786	      1.09204146	      0.01905972	     -0.12471664	    -14.02189098	     -7.49999987	      3.93101212	     -5.28800781	     -0.75956650	      2.55556862	      0.04460309	     -0.60872237	     -8.84142070	     -7.49999987	      3.03269137	     -6.72586542	      1.48305379	   -179.61112234	   -132.52925461	   -247.12482033	     61.42813465	     65.07170585	      7.83812629	     -8.80351329	    -51.86987225	     33.37884391	     95.15604055
      5.98333330	     -4.47791570	      0.27383165	     -0.71595302	      0.34124412	      0.95561888	     -0.04161716	      0.69131459	     -6.62096657	     -4.08009419	      1.07212995	      0.01871220	     -0.29638878	    -13.97706091	     -7.49999987	      3.69899326	     -5.12956201	     -0.86367061	      2.52161673	      0.04401051	     -0.68243761	     -8.93114834	     -7.49999987	      2.97979281	     -6.50071688	      0.71882090	   -178.38594047	   -134.20690753	   -244.92347812	     60.43652000	     63.79298998	      7.26808669	     -8.84737993	    -51.13517658	     31.95192327	     93.83010350
      6.00000000	     -4.34497034	      0.31028534	     -0.80418494	      0.33740786	      0.95525546	     -0.03636861	      0.56377005	     -6.69089258	     -4.00046499	      1.05770743	      0.01846048	     -0.36989750	    -13.96500803	     -7.49999987	      3.52355389	     -5.08731340	     -1.00133227	      2.50114158	      0.04365316	     -0.67426251	     -9.04210633	     -7.49999987	      2.78887427	     -6.46665247	      0.69061220	   -178.65628177	   -136.49046650	   -244.30404411	     59.92814661	     63.79506530	      7.43083420	     -8.58856838	    -51.00572376	     31.55289791	     93.88956995
      6.01666670	     -4.28015578	      0.35439643	     -0.89395239	      0.33248387	      0.95551034	     -0.04089852	      0.63881172	     -6.82570027	     -3.82217458	      1.10147074	      0.01922429	     -0.64856014	    -14.32738531	     -7.49999987	      3.52619303	     -4.96399968	     -1.11178658	      2.50284812	      0.04368294	     -0.72923931	     -9.26079062	     -7.49999987	      2.71742959	     -6.16005055	     -0.06505574	   -176.63326116	   -137.81104938	   -241.78060171	     58.28959976	     63.66143067	      7.23307656	     -8.79976300	    -49.46908713	     29.52415460	     94.27872966
      6.03333330	     -4.00928778	      0.36227693	     -0.88790511	      0.33283221	      0.95538229	     -0.04064321	      0.44885208	     -6.88830639	     -3.80265803	      1.08430323	      0.01892466	     -0.56282485	    -14.19176472	     -7.49999987	      3.33047384	     -4.86969378	     -1.13964237	      2.49483067	      0.04354301	     -0.52041121	     -9.11003665	     -7.49999987	      2.22441925	     -5.93969186	     -1.10628561	   -174.39506217	   -139.59477569	   -239.92820863	     56.06225809	     62.77856193	      6.62182217	     -8.39078556	    -49.27810183	     30.23528904	     89.19667237
      6.05000000	     -3.97995001	      0.35977701	     -0.91729406	      0.33678002	      0.95583230	     -0.03645375	      0.48702942	     -6.84812158	     -3.40178677	      1.09306940	      0.01907766	     -0.87263694	    -14.70216653	     -7.49999987	      3.34434284	     -4.86678544	     -1.13757192	      2.49473250	      0.04354130	     -0.62365769	     -9.31388062	     -7.49999987	      2.25673201	     -5.60874198	     -1.28512252	   -174.12367578	   -141.35366861	   -239.29412704	     54.98095608	     62.84728603	      6.87717509	     -8.74122158	    -47.34498832	     28.17073657	     90.16888161
      6.06666670	     -3.79176193	      0.34416615	     -0.92897003	      0.33704317	      0.95557174	     -0.03607723	      0.28927576	     -6.78557139	     -3.15807887	      1.12885102	      0.01970217	     -0.95781847	    -15.11561936	     -7.49999987	      3.14330994	     -4.90582961	     -1.34377898	      2.50898916	      0.04379012	     -0.44409545	     -9.08024749	     -7.49999987	      1.99549797	     -5.27316715	     -1.53629261	   -174.25538028	   -143.13649147	   -238.72111884	     54.13105096	     62.16243601	      6.60924946	     -8.83347056	    -44.33070725	     27.72603748	     87.59355335
      6.08333330	     -3.60985388	      0.29441236	     -0.92006695	      0.33252864	      0.95601860	     -0.03167585	      0.13102794	     -6.60438298	     -3.28229397	      1.16050842	      0.02025469	     -0.51285055	    -14.68674923	     -7.49999987	      3.00751482	     -5.04054329	     -1.38828403	      2.56589270	      0.04478328	     -0.46155684	     -9.25859033	     -7.49999987	      1.69386067	     -5.10002922	     -1.63790416	   -174.78949435	   -145.40034519	   -239.04906643	     53.53519696	     62.02723492	      6.66059349	     -8.94980537	    -42.50804977	     27.40459113	     88.31880029
      6.10000000	     -3.42758234	      0.25823532	     -0.98897864	      0.33685906	      0.95565679	     -0.03616414	     -0.06096651	     -6.50379771	     -3.28297228	      1.19222840	      0.02080831	     -0.49366122	    -14.74114555	     -7.49999987	      2.81495128	     -5.14473026	     -1.58160011	      2.62543064	      0.04582241	     -0.52192108	     -9.26400782	     -7.49999987	      1.53162503	     -4.89978905	     -2.03123426	   -175.59892893	   -147.40333022	   -238.86149350	     53.07320355	     61.99586722	      6.38131550	     -8.62205144	    -42.34739031	     27.27943979	     88.34726080
      6.11666670	     -3.24530798	      0.16356208	     -1.03808376	      0.34068195	      0.95329347	     -0.03221616	     -0.32201100	     -6.34231809	     -3.21667721	      1.20617492	      0.02105172	     -0.41365401	    -14.77322127	     -7.49999987	      2.54831238	     -5.33167645	     -1.79703937	      2.68192452	      0.04680841	     -0.44265710	     -9.35828147	     -7.49999987	      1.46935573	     -4.67354195	     -2.33541900	   -176.41254799	   -149.44042685	   -238.70449517	     52.63597305	     61.96311142	      6.02254432	     -8.34532711	    -42.24266632	     27.22888017	     88.36072165
      6.13333330	     -3.14332266	      0.08075352	     -1.12187914	      0.33690117	      0.95315440	     -0.02727162	     -0.46241245	     -6.12648899	     -3.17752079	      1.15731406	      0.02019894	     -0.28235577	    -14.82070963	     -7.49999987	      2.38871734	     -5.56379496	     -1.97113348	      2.68794217	      0.04691344	     -0.37070076	     -9.41830078	     -7.49999987	      1.38443166	     -4.52571264	     -2.39817017	   -177.01748794	   -151.69975792	   -238.41959873	     52.28472676	     61.93735805	      5.91024850	     -8.09707092	    -42.12013637	     27.27350687	     88.37332621
